<?xml version="1.0" encoding="UTF-8"?>
<svg width="23px" height="21px" viewBox="0 0 23 21" version="1.1" xmlns="http://www.w3.org/2000/svg" xmlns:xlink="http://www.w3.org/1999/xlink">
    <!-- Generator: Sketch 63.1 (92452) - https://sketch.com -->
    <title>_Icons / 8 Like Copy 2</title>
    <desc>Created with Sketch.</desc>
    <g id="Screens" stroke="none" stroke-width="1" fill="none" fill-rule="evenodd">
        <g id="Multisup-Story-Collection" transform="translate(-339.000000, -743.000000)" fill="#E5E5EA">
            <g id="Contents" transform="translate(0.000000, 54.000000)">
                <g id="Group-5" transform="translate(10.000000, 684.000000)">
                    <g id="_Icons-/-Right_5" transform="translate(325.000000, 0.000000)">
                        <path d="M26.1285715,12.2142857 L18.620598,5.30730892 C18.3221708,5.03201116 17.8828372,4.95545655 17.5039305,5.11276177 C17.1250238,5.27006698 16.8795753,5.63089931 16.8800665,6.02990029 L16.8800665,9.04983386 C8.84684382,10.1710963 5.55631224,16.8039867 4.94352154,24.6478406 C4.93218114,24.8844406 5.0944944,25.0960758 5.33178869,25.15409 C5.56908299,25.2121043 5.81578747,25.1004666 5.92192686,24.8870432 C7.90963451,20.666113 11.0714285,16.8388704 16.8800665,16.8239203 L16.8800665,19.8438538 C16.8795753,20.2428548 17.1250238,20.6036871 17.5039305,20.7609924 C17.8828372,20.9182976 18.3221708,20.8417564 18.620598,20.5664452 L26.1285715,13.6594684 C26.3332444,13.4713017 26.4491291,13.2100779 26.4491291,12.9368771 C26.4491291,12.6636763 26.3332444,12.4024524 26.1285715,12.2142857 Z" id="36-Right_5"></path>
                    </g>
                </g>
            </g>
        </g>
    </g>
</svg>