<?xml version="1.0" encoding="UTF-8"?>
<svg width="23px" height="19px" viewBox="0 0 23 19" version="1.1" xmlns="http://www.w3.org/2000/svg" xmlns:xlink="http://www.w3.org/1999/xlink">
    <!-- Generator: Sketch 63.1 (92452) - https://sketch.com -->
    <title>_Icons / 8 Like</title>
    <desc>Created with Sketch.</desc>
    <g id="Screens" stroke="none" stroke-width="1" fill="none" fill-rule="evenodd">
        <g id="Multisup-Story-Collection" transform="translate(-94.000000, -744.000000)" fill="#E5E5EA">
            <g id="Contents" transform="translate(0.000000, 54.000000)">
                <g id="Group-5" transform="translate(10.000000, 684.000000)">
                    <g id="dislike" transform="translate(80.000000, 0.000000)">
                        <g id="_Icons-/-29-Dislike">
                            <path d="M17.3083333,6.8616071 C17.8809357,7.04014238 18.2687692,7.55621105 18.2678588,8.13839282 L18.2678588,15.8928571 C18.2666665,16.1371085 18.1964761,16.376394 18.064881,16.5848214 L15.643006,20.4151786 C15.5010194,20.6412018 15.4260116,20.9006659 15.4261905,21.1651786 L15.4261905,23.2723215 C15.4275527,23.740423 15.0551124,24.1300727 14.5727679,24.1651786 C13.2534226,24.25 10.9883928,23.6830358 12.0355655,18.4107143 L6.735119,18.4107143 C5.46124792,18.4107143 4.42857137,17.4113499 4.42857137,16.1785714 C4.42857137,13.8080357 4.8898809,9.98660712 7.28869044,6.99999996 C7.72326809,6.46760997 8.37382152,6.14225191 9.0739583,6.10714281 C10.8869047,6.02678567 14.5773809,5.97767853 17.3083333,6.8616071 Z M25.1875,6.07142853 C25.9518227,6.07142853 26.5714286,6.67104717 26.5714286,7.41071425 L26.5714286,7.41071425 L26.5714286,15 C26.5714286,15.7396671 25.9518227,16.3392857 25.1875,16.3392857 L25.1875,16.3392857 L21.4970238,16.3392857 C20.7327012,16.3392857 20.1130953,15.7396671 20.1130953,15 L20.1130953,15 L20.1130953,7.41071425 C20.1130953,6.67104717 20.7327012,6.07142853 21.4970238,6.07142853 L21.4970238,6.07142853 Z M23.3422619,8.3035714 C22.8327135,8.3035714 22.4196429,8.70331716 22.4196429,9.19642854 C22.4196429,9.68953993 22.8327135,10.0892857 23.3422619,10.0892857 C23.5869557,10.0892857 23.8216275,9.99521708 23.9946521,9.82777389 C24.1676768,9.66033069 24.264881,9.43322898 24.264881,9.19642854 C24.264881,8.70331716 23.8518104,8.3035714 23.3422619,8.3035714 Z" id="Combined-Shape"></path>
                        </g>
                    </g>
                </g>
            </g>
        </g>
    </g>
</svg>