<?xml version="1.0" encoding="UTF-8"?>
<svg width="23px" height="19px" viewBox="0 0 23 19" version="1.1" xmlns="http://www.w3.org/2000/svg" xmlns:xlink="http://www.w3.org/1999/xlink">
    <!-- Generator: Sketch 63.1 (92452) - https://sketch.com -->
    <title>_Icons / 8 Like</title>
    <desc>Created with Sketch.</desc>
    <g id="Screens" stroke="none" stroke-width="1" fill="none" fill-rule="evenodd">
        <g id="Multisup-Story-Collection" transform="translate(-14.000000, -744.000000)" fill="#E5E5EA">
            <g id="Contents" transform="translate(0.000000, 54.000000)">
                <g id="Group-5" transform="translate(10.000000, 684.000000)">
                    <g id="like">
                        <g id="_Icons-/-28-Like">
                            <path d="M18.9598214,11.8258928 L24.264881,11.8258928 C24.8766155,11.8258928 25.4632949,12.0610644 25.8958565,12.4796724 C26.3284181,12.8982803 26.5714286,13.4660346 26.5714286,14.0580357 C26.5714286,16.4330357 26.1101191,20.25 23.7113096,23.2410715 C23.2771243,23.7739217 22.6263395,24.0993955 21.9260417,24.1339286 C20.1361607,24.2276786 16.3903274,24.2767858 13.6916667,23.3928572 C13.1158064,23.213327 12.7271986,22.6926118 12.7320962,22.1071429 L12.7320962,14.3616071 C12.7316409,14.1143222 12.8018945,13.8717307 12.935119,13.6607143 L15.356994,9.83035712 C15.4989806,9.60433388 15.5739884,9.34486983 15.5738095,9.08035711 L15.5738095,6.96428567 C15.5722646,6.49777343 15.9420988,6.1087473 16.4226191,6.07142853 C17.7419643,5.9866071 20.0069941,6.5491071 18.9598214,11.8258928 Z M9.50297616,13.9017857 C10.2672988,13.9017857 10.8869047,14.5014044 10.8869047,15.2410714 L10.8869047,15.2410714 L10.8869047,22.8303572 C10.8869047,23.5700243 10.2672988,24.1696429 9.50297616,24.1696429 L9.50297616,24.1696429 L5.81249995,24.1696429 C5.0481773,24.1696429 4.42857137,23.5700243 4.42857137,22.8303572 L4.42857137,22.8303572 L4.42857137,15.2410714 C4.42857137,14.5014044 5.0481773,13.9017857 5.81249995,13.9017857 L5.81249995,13.9017857 Z M7.65773806,20.1517857 C7.14818962,20.1517857 6.735119,20.5515315 6.735119,21.0446429 C6.735119,21.5377543 7.14818962,21.9375 7.65773806,21.9375 C8.16728649,21.9375 8.58035711,21.5377543 8.58035711,21.0446429 C8.58035711,20.5515315 8.16728649,20.1517857 7.65773806,20.1517857 Z" id="Combined-Shape"></path>
                        </g>
                    </g>
                </g>
            </g>
        </g>
    </g>
</svg>