<?xml version="1.0" encoding="UTF-8"?>
<svg width="22px" height="22px" viewBox="0 0 22 22" version="1.1" xmlns="http://www.w3.org/2000/svg" xmlns:xlink="http://www.w3.org/1999/xlink">
    <!-- Generator: Sketch 63.1 (92452) - https://sketch.com -->
    <title>_Icons / 8 Like Copy</title>
    <desc>Created with Sketch.</desc>
    <g id="Screens" stroke="none" stroke-width="1" fill="none" fill-rule="evenodd">
        <g id="Multisup-Story-Collection" transform="translate(-267.000000, -742.000000)" fill="#E5E5EA">
            <g id="Contents" transform="translate(0.000000, 54.000000)">
                <g id="Group-5" transform="translate(10.000000, 684.000000)">
                    <g id="comment" transform="translate(253.000000, 0.000000)">
                        <g id="_Icons-/-14-Comment_5">
                            <path d="M14.782364,4.53488111 C10.9731135,4.53926182 7.46575465,6.6043723 5.62013554,9.92954533 C3.77451643,13.2547184 3.8808707,17.3170523 5.89796344,20.5415283 L4.39975086,24.0747509 C4.24186403,24.4483294 4.32649663,24.8801156 4.61380005,25.1668061 C4.90110346,25.4534967 5.33381269,25.5379488 5.70818984,25.3803987 L9.24896557,23.8853821 C13.0290566,26.232508 17.8822838,25.9422261 21.3543444,23.1613335 C24.826405,20.380441 26.1604917,15.7150906 24.6819498,11.5245749 C23.2034078,7.33405927 19.234516,4.53178763 14.782364,4.53488111 L14.782364,4.53488111 Z M16.7799808,18.2392027 L10.2877263,18.2392027 C9.73609965,18.2392027 9.2889179,17.7929748 9.2889179,17.2425249 C9.2889179,16.692075 9.73609965,16.2458472 10.2877263,16.2458472 L16.7799808,16.2458472 C17.3316074,16.2458472 17.7787892,16.692075 17.7787892,17.2425249 C17.7787892,17.7929748 17.3316074,18.2392027 16.7799808,18.2392027 Z M19.2770018,13.7541528 L10.2877263,13.7541528 C9.73609965,13.7541528 9.2889179,13.307925 9.2889179,12.7574751 C9.2889179,12.2070252 9.73609965,11.7607973 10.2877263,11.7607973 L19.2770018,11.7607973 C19.8286284,11.7607973 20.2758101,12.2070252 20.2758101,12.7574751 C20.2758101,13.307925 19.8286284,13.7541528 19.2770018,13.7541528 Z" id="14-Comment_5"></path>
                        </g>
                    </g>
                </g>
            </g>
        </g>
    </g>
</svg>